<?xml version="1.0" encoding="UTF-8" standalone="no"?>
<!DOCTYPE svg PUBLIC "-//W3C//DTD SVG 1.1//EN"
 "http://www.w3.org/Graphics/SVG/1.1/DTD/svg11.dtd">
<!-- Generated by graphviz version 2.38.0 (20140413.2041)
 -->
<!-- Title: G Pages: 1 -->
<svg width="503pt" height="532pt"
 viewBox="0.00 0.00 502.77 532.00" xmlns="http://www.w3.org/2000/svg" xmlns:xlink="http://www.w3.org/1999/xlink">
<g id="graph0" class="graph" transform="scale(1 1) rotate(0) translate(4 528)">
<title>G</title>
<polygon fill="white" stroke="none" points="-4,4 -4,-528 498.773,-528 498.773,4 -4,4"/>
<g id="clust1" class="cluster"><title>cluster_Global</title>
<path fill="none" stroke="gray" d="M366.773,-8C366.773,-8 474.773,-8 474.773,-8 480.773,-8 486.773,-14 486.773,-20 486.773,-20 486.773,-504 486.773,-504 486.773,-510 480.773,-516 474.773,-516 474.773,-516 366.773,-516 366.773,-516 360.773,-516 354.773,-510 354.773,-504 354.773,-504 354.773,-20 354.773,-20 354.773,-14 360.773,-8 366.773,-8"/>
<text text-anchor="middle" x="420.773" y="-503.2" font-family="Times,serif" font-size="11.00" fill="gray">Global</text>
</g>
<g id="clust2" class="cluster"><title>cluster_\Marton</title>
<path fill="none" stroke="gray" d="M374.773,-60C374.773,-60 466.773,-60 466.773,-60 472.773,-60 478.773,-66 478.773,-72 478.773,-72 478.773,-476 478.773,-476 478.773,-482 472.773,-488 466.773,-488 466.773,-488 374.773,-488 374.773,-488 368.773,-488 362.773,-482 362.773,-476 362.773,-476 362.773,-72 362.773,-72 362.773,-66 368.773,-60 374.773,-60"/>
<text text-anchor="middle" x="420.773" y="-475.2" font-family="Times,serif" font-size="11.00" fill="gray">Marton</text>
</g>
<g id="clust3" class="cluster"><title>cluster_\Marton\App</title>
<path fill="none" stroke="gray" d="M397.773,-388C397.773,-388 443.773,-388 443.773,-388 449.773,-388 455.773,-394 455.773,-400 455.773,-400 455.773,-448 455.773,-448 455.773,-454 449.773,-460 443.773,-460 443.773,-460 397.773,-460 397.773,-460 391.773,-460 385.773,-454 385.773,-448 385.773,-448 385.773,-400 385.773,-400 385.773,-394 391.773,-388 397.773,-388"/>
<text text-anchor="middle" x="420.773" y="-447.2" font-family="Times,serif" font-size="11.00" fill="gray">App</text>
</g>
<g id="clust4" class="cluster"><title>cluster_\Marton\Dice</title>
<path fill="none" stroke="gray" d="M397.773,-308C397.773,-308 443.773,-308 443.773,-308 449.773,-308 455.773,-314 455.773,-320 455.773,-320 455.773,-368 455.773,-368 455.773,-374 449.773,-380 443.773,-380 443.773,-380 397.773,-380 397.773,-380 391.773,-380 385.773,-374 385.773,-368 385.773,-368 385.773,-320 385.773,-320 385.773,-314 391.773,-308 397.773,-308"/>
<text text-anchor="middle" x="420.773" y="-367.2" font-family="Times,serif" font-size="11.00" fill="gray">Dice</text>
</g>
<g id="clust5" class="cluster"><title>cluster_\Marton\Navbar</title>
<path fill="none" stroke="gray" d="M396.273,-228C396.273,-228 445.273,-228 445.273,-228 451.273,-228 457.273,-234 457.273,-240 457.273,-240 457.273,-288 457.273,-288 457.273,-294 451.273,-300 445.273,-300 445.273,-300 396.273,-300 396.273,-300 390.273,-300 384.273,-294 384.273,-288 384.273,-288 384.273,-240 384.273,-240 384.273,-234 390.273,-228 396.273,-228"/>
<text text-anchor="middle" x="420.773" y="-287.2" font-family="Times,serif" font-size="11.00" fill="gray">Navbar</text>
</g>
<g id="clust6" class="cluster"><title>cluster_\Marton\Session</title>
<path fill="none" stroke="gray" d="M392.773,-148C392.773,-148 448.773,-148 448.773,-148 454.773,-148 460.773,-154 460.773,-160 460.773,-160 460.773,-208 460.773,-208 460.773,-214 454.773,-220 448.773,-220 448.773,-220 392.773,-220 392.773,-220 386.773,-220 380.773,-214 380.773,-208 380.773,-208 380.773,-160 380.773,-160 380.773,-154 386.773,-148 392.773,-148"/>
<text text-anchor="middle" x="420.773" y="-207.2" font-family="Times,serif" font-size="11.00" fill="gray">Session</text>
</g>
<g id="clust7" class="cluster"><title>cluster_\Marton\Textfilter</title>
<path fill="none" stroke="gray" d="M382.773,-68C382.773,-68 458.773,-68 458.773,-68 464.773,-68 470.773,-74 470.773,-80 470.773,-80 470.773,-128 470.773,-128 470.773,-134 464.773,-140 458.773,-140 458.773,-140 382.773,-140 382.773,-140 376.773,-140 370.773,-134 370.773,-128 370.773,-128 370.773,-80 370.773,-80 370.773,-74 376.773,-68 382.773,-68"/>
<text text-anchor="middle" x="420.773" y="-127.2" font-family="Times,serif" font-size="11.00" fill="gray">Textfilter</text>
</g>
<!-- \\Marton\\App\\App -->
<g id="node1" class="node"><title>\\Marton\\App\\App</title>
<polygon fill="none" stroke="black" points="447.773,-432 393.773,-432 393.773,-396 447.773,-396 447.773,-432"/>
<text text-anchor="middle" x="420.773" y="-411.2" font-family="Courier,monospace" font-size="11.00">App</text>
</g>
<!-- \\Marton\\Dice\\Dice -->
<g id="node2" class="node"><title>\\Marton\\Dice\\Dice</title>
<polygon fill="none" stroke="black" points="447.773,-352 393.773,-352 393.773,-316 447.773,-316 447.773,-352"/>
<text text-anchor="middle" x="420.773" y="-331.2" font-family="Courier,monospace" font-size="11.00">Dice</text>
</g>
<!-- \\Marton\\Navbar\\Navbar -->
<g id="node3" class="node"><title>\\Marton\\Navbar\\Navbar</title>
<polygon fill="none" stroke="black" points="449.273,-272 392.273,-272 392.273,-236 449.273,-236 449.273,-272"/>
<text text-anchor="middle" x="420.773" y="-251.2" font-family="Courier,monospace" font-size="11.00">Navbar</text>
</g>
<!-- \\Anax\\Common\\ConfigureInterface -->
<g id="node7" class="node"><title>\\Anax\\Common\\ConfigureInterface</title>
<ellipse fill="none" stroke="black" cx="153.386" cy="-281" rx="139.175" ry="18"/>
<text text-anchor="middle" x="153.386" y="-277.3" font-family="Times,serif" font-size="14.00" fill="gray">\Anax\Common\ConfigureInterface</text>
</g>
<!-- \\Marton\\Navbar\\Navbar&#45;&gt;\\Anax\\Common\\ConfigureInterface -->
<g id="edge1" class="edge"><title>\\Marton\\Navbar\\Navbar&#45;&gt;\\Anax\\Common\\ConfigureInterface</title>
<path fill="none" stroke="black" stroke-dasharray="1,5" d="M391.873,-256.838C363.417,-259.734 317.308,-264.425 273.253,-268.907"/>
<polygon fill="none" stroke="black" points="272.896,-265.425 263.301,-269.919 273.604,-272.389 272.896,-265.425"/>
</g>
<!-- \\Anax\\Common\\AppInjectableInterface -->
<g id="node8" class="node"><title>\\Anax\\Common\\AppInjectableInterface</title>
<ellipse fill="none" stroke="black" cx="153.386" cy="-227" rx="153.273" ry="18"/>
<text text-anchor="middle" x="153.386" y="-223.3" font-family="Times,serif" font-size="14.00" fill="gray">\Anax\Common\AppInjectableInterface</text>
</g>
<!-- \\Marton\\Navbar\\Navbar&#45;&gt;\\Anax\\Common\\AppInjectableInterface -->
<g id="edge2" class="edge"><title>\\Marton\\Navbar\\Navbar&#45;&gt;\\Anax\\Common\\AppInjectableInterface</title>
<path fill="none" stroke="black" stroke-dasharray="1,5" d="M391.873,-251.162C364.83,-248.41 321.844,-244.037 279.829,-239.762"/>
<polygon fill="none" stroke="black" points="280.055,-236.267 269.752,-238.737 279.347,-243.231 280.055,-236.267"/>
</g>
<!-- \\Marton\\Session\\Session -->
<g id="node4" class="node"><title>\\Marton\\Session\\Session</title>
<polygon fill="none" stroke="black" points="452.773,-192 388.773,-192 388.773,-156 452.773,-156 452.773,-192"/>
<text text-anchor="middle" x="420.773" y="-171.2" font-family="Courier,monospace" font-size="11.00">Session</text>
</g>
<!-- \\Marton\\Textfilter\\Textfilter -->
<g id="node5" class="node"><title>\\Marton\\Textfilter\\Textfilter</title>
<polygon fill="none" stroke="black" points="462.773,-112 378.773,-112 378.773,-76 462.773,-76 462.773,-112"/>
<text text-anchor="middle" x="420.773" y="-91.2" font-family="Courier,monospace" font-size="11.00">Textfilter</text>
</g>
<!-- \\Database -->
<g id="node6" class="node"><title>\\Database</title>
<polygon fill="none" stroke="black" points="456.273,-52 385.273,-52 385.273,-16 456.273,-16 456.273,-52"/>
<text text-anchor="middle" x="420.773" y="-31.2" font-family="Courier,monospace" font-size="11.00">Database</text>
</g>
</g>
</svg>
